<?xml version="1.0" encoding="UTF-8"?>
<svg xmlns="http://www.w3.org/2000/svg" xmlns:xlink="http://www.w3.org/1999/xlink" width="32px" height="32px" viewBox="0 0 32 32" version="1.1">
<g id="surface1">
<path style=" stroke:none;fill-rule:nonzero;fill:rgb(0%,0%,0%);fill-opacity:1;" d="M 13.859375 0.53125 C 12.726562 0.761719 11.734375 1.363281 11.152344 2.160156 C 10.621094 2.886719 9.734375 5.328125 9.734375 6.070312 C 9.734375 6.867188 9.539062 6.957031 8.175781 6.742188 C 6.566406 6.496094 3.804688 6.496094 2.65625 6.742188 C 1.363281 7.027344 0.460938 7.910156 0.175781 9.222656 C -0.0195312 10.054688 0 10.40625 0.246094 11.523438 C 0.902344 14.425781 1.839844 15.664062 5.433594 18.40625 C 6.867188 19.503906 8.105469 20.460938 8.175781 20.511719 C 8.246094 20.585938 8.441406 21.34375 8.585938 22.210938 C 8.957031 24.371094 9.488281 25.257812 11.042969 26.40625 L 12.300781 27.34375 L 13.980469 27.328125 C 15.257812 27.328125 15.894531 27.222656 16.636719 26.9375 C 18 26.390625 19.539062 25.132812 20.175781 24.035156 C 20.742188 23.027344 21.238281 21.152344 21.238281 20 C 21.238281 19.257812 21.488281 18.601562 21.839844 18.371094 C 21.945312 18.300781 22.019531 18.019531 21.980469 17.753906 C 21.929688 17.113281 22.691406 16.476562 23.097656 16.8125 C 23.238281 16.9375 23.488281 16.992188 23.628906 16.921875 C 23.804688 16.847656 23.980469 16.972656 24.105469 17.273438 C 24.28125 17.664062 24.265625 17.824219 23.980469 18.300781 C 23.804688 18.601562 23.488281 19.328125 23.273438 19.910156 C 22.957031 20.761719 22.761719 21.042969 22.28125 21.273438 C 21.804688 21.523438 21.679688 21.71875 21.644531 22.160156 C 21.574219 23.328125 21.753906 23.875 22.300781 24.160156 C 22.992188 24.511719 23.0625 25.222656 22.390625 25.097656 C 22.019531 25.007812 21.875 25.132812 21.414062 25.945312 C 20.707031 27.222656 18.992188 29.007812 17.113281 30.476562 L 15.539062 31.679688 L 23.753906 31.664062 C 31.203125 31.644531 31.875 31.628906 31.0625 31.378906 C 25.859375 29.875 25.273438 29.59375 24.796875 28.371094 C 24.671875 28.070312 24.425781 27.679688 24.230469 27.503906 C 24.054688 27.34375 23.894531 27.027344 23.894531 26.832031 C 23.894531 26.28125 24.390625 25.664062 24.796875 25.664062 C 24.992188 25.664062 25.097656 25.59375 25.042969 25.488281 C 24.992188 25.398438 24.902344 24.390625 24.867188 23.273438 L 24.8125 21.222656 L 26.335938 20.195312 C 29.699219 17.929688 31.027344 15.664062 31.042969 12.210938 C 31.042969 9.628906 30.054688 7.679688 28.210938 6.691406 C 27.007812 6.035156 25.945312 5.824219 23.46875 5.679688 L 21.363281 5.574219 L 20.160156 3.628906 C 19.503906 2.546875 18.707031 1.46875 18.390625 1.203125 C 17.488281 0.441406 15.664062 0.175781 13.859375 0.53125 Z M 14.671875 12.300781 C 15.0625 12.726562 15.398438 13.167969 15.398438 13.273438 C 15.398438 13.378906 15.929688 13.453125 16.671875 13.453125 C 17.875 13.453125 17.929688 13.433594 17.558594 13.167969 C 17.34375 13.027344 17.167969 12.742188 17.167969 12.53125 C 17.167969 12.210938 17.238281 12.195312 17.789062 12.28125 C 18.28125 12.390625 18.40625 12.355469 18.40625 12.125 C 18.40625 11.609375 18.9375 11.609375 19.46875 12.125 C 19.753906 12.390625 20.160156 12.707031 20.371094 12.8125 C 21.273438 13.273438 21.523438 15.699219 20.796875 16.902344 C 20.546875 17.292969 20.355469 17.804688 20.355469 18.035156 C 20.355469 18.972656 19.894531 19.929688 19.007812 20.847656 C 18.070312 21.824219 17.71875 21.894531 17.398438 21.1875 C 16.992188 20.300781 16.160156 19.59375 14.707031 18.847656 C 13.875 18.441406 13.007812 17.875 12.796875 17.628906 C 12.566406 17.363281 12.210938 17.167969 11.964844 17.167969 C 11.574219 17.167969 11.539062 17.222656 11.609375 17.734375 C 11.699219 18.246094 11.59375 18.425781 10.742188 19.257812 C 10.210938 19.753906 9.644531 20.496094 9.46875 20.902344 C 9.152344 21.609375 9.132812 21.609375 8.921875 21.203125 C 8.742188 20.902344 8.691406 19.769531 8.671875 17.152344 C 8.671875 13.910156 8.707031 13.453125 8.992188 13.113281 C 9.398438 12.621094 10.441406 12.40625 10.441406 12.8125 C 10.441406 12.957031 10.246094 13.222656 10 13.378906 C 9.753906 13.539062 9.558594 13.804688 9.558594 13.980469 C 9.558594 14.28125 9.609375 14.28125 10.460938 13.929688 C 11.34375 13.558594 11.363281 13.558594 11.609375 13.894531 C 11.753906 14.070312 11.859375 14.511719 11.859375 14.847656 C 11.875 15.453125 11.894531 15.46875 12.125 15.152344 C 12.265625 14.957031 12.390625 14.546875 12.390625 14.265625 C 12.390625 13.929688 12.621094 13.433594 12.921875 13.027344 C 13.222656 12.636719 13.453125 12.195312 13.453125 12.035156 C 13.453125 11.71875 13.609375 11.503906 13.804688 11.503906 C 13.875 11.503906 14.265625 11.859375 14.671875 12.300781 Z M 14.921875 20.707031 C 16.265625 21.078125 16.796875 21.523438 16.8125 22.246094 C 16.8125 22.636719 16.742188 22.65625 15.558594 22.65625 C 14.761719 22.65625 14.070312 22.546875 13.679688 22.355469 C 13.097656 22.089844 13.027344 22.089844 12.566406 22.355469 C 11.945312 22.726562 10.742188 22.742188 10.460938 22.40625 C 10.175781 22.070312 10.28125 21.222656 10.621094 21.0625 C 11.273438 20.742188 12.53125 20.390625 13.0625 20.371094 C 13.378906 20.371094 14.210938 20.511719 14.921875 20.707031 Z M 14.921875 20.707031 "/>
<path style=" stroke:none;fill-rule:nonzero;fill:rgb(0%,0%,0%);fill-opacity:1;" d="M 13.273438 17.078125 C 13.273438 17.273438 13.980469 17.503906 14.246094 17.414062 C 14.476562 17.308594 14.496094 17.273438 14.300781 17.152344 C 14.054688 16.992188 13.273438 16.9375 13.273438 17.078125 Z M 13.273438 17.078125 "/>
<path style=" stroke:none;fill-rule:nonzero;fill:rgb(0%,0%,0%);fill-opacity:1;" d="M 9.609375 29.894531 C 8.796875 30.742188 8.140625 31.488281 8.140625 31.558594 C 8.140625 31.628906 9.0625 31.679688 10.175781 31.679688 C 11.292969 31.679688 12.210938 31.664062 12.210938 31.628906 C 12.210938 31.59375 12.105469 31.167969 11.964844 30.691406 C 11.824219 30.210938 11.609375 29.488281 11.503906 29.0625 C 11.398438 28.65625 11.257812 28.335938 11.1875 28.335938 C 11.113281 28.355469 10.40625 29.0625 9.609375 29.894531 Z M 9.609375 29.894531 "/>
<path style=" stroke:none;fill-rule:nonzero;fill:rgb(0%,0%,0%);fill-opacity:1;" d="M 15.363281 29.414062 C 14.992188 29.539062 14.867188 29.699219 14.867188 30.054688 L 14.867188 30.53125 L 15.433594 29.964844 C 16.070312 29.308594 16.054688 29.1875 15.363281 29.414062 Z M 15.363281 29.414062 "/>
</g>
</svg>
